<svg xmlns="http://www.w3.org/2000/svg" width="124" height="112" viewBox="0 0 124 112"><g><g transform="rotate(175.84 864.39 447.07)"><path fill="#fff" d="M53.58 64.982l5.535-3.437-7.951-5.263z"/></g><g transform="rotate(175.84 864.39 447.07)"><path fill="#fff" d="M124.296 51.89a3.625 3.625 0 0 1-.325 1.802 3.976 3.976 0 0 1-1.18 1.472l.02.026-14.45 8.967 9.486 12.778-.035.022c.318.544.49 1.15.504 1.766a3.635 3.635 0 0 1-.425 1.785 4.024 4.024 0 0 1-1.266 1.41 4.5 4.5 0 0 1-1.827.735l.002.03-17.041 1.135 1.248 15.667-.044.003a3.664 3.664 0 0 1-.53 1.762 4.072 4.072 0 0 1-1.344 1.351 4.547 4.547 0 0 1-1.868.644 4.674 4.674 0 0 1-1.984-.2l-.016.029-15.379-6.806-7.488 14.14-.039-.017c-.705 1.022-1.905 1.744-3.326 1.839a4.653 4.653 0 0 1-1.969-.298 4.287 4.287 0 0 1-1.61-1.078l-.029.018-9.493-12.788-14.584 9.048-.024-.031a4.612 4.612 0 0 1-1.934.462 4.634 4.634 0 0 1-1.953-.388c-1.28-.567-2.104-1.64-2.347-2.828l-.035.002-1.256-15.76-17.289 1.151-.003-.04a4.606 4.606 0 0 1-1.926-.483 4.182 4.182 0 0 1-1.479-1.229 3.726 3.726 0 0 1-.703-1.707 3.609 3.609 0 0 1 .217-1.814l-.03-.013 7.531-14.22-15.6-6.904.019-.037c-1.12-.644-1.91-1.741-2.013-3.04a3.627 3.627 0 0 1 .325-1.8 3.969 3.969 0 0 1 1.18-1.472l-.02-.027 14.45-8.966L6.929 35.21l.035-.023a3.664 3.664 0 0 1-.504-1.767 3.645 3.645 0 0 1 .425-1.785 4.023 4.023 0 0 1 1.266-1.41 4.503 4.503 0 0 1 1.827-.735l-.002-.03 17.04-1.135-1.248-15.668.043-.003a3.67 3.67 0 0 1 .53-1.762 4.076 4.076 0 0 1 1.345-1.351 4.544 4.544 0 0 1 1.868-.643 4.672 4.672 0 0 1 1.984.199l.015-.03 15.378 6.807 7.489-14.14.04.018c.704-1.024 1.904-1.746 3.325-1.84a4.658 4.658 0 0 1 1.97.297c.621.24 1.173.609 1.609 1.08l.03-.02 9.493 12.79 14.584-9.05.023.033a4.604 4.604 0 0 1 1.934-.464 4.626 4.626 0 0 1 1.954.39c.607.269 1.135.666 1.543 1.157.408.491.683 1.063.803 1.67l.036-.002 1.255 15.76 17.29-1.15.004.038a4.61 4.61 0 0 1 1.927.484 4.185 4.185 0 0 1 1.478 1.228c.378.511.619 1.096.703 1.708.085.612.01 1.233-.217 1.814l.03.014-7.532 14.22 15.602 6.905-.02.036c1.12.646 1.91 1.742 2.013 3.04zM47.392 70.1c-4.495-6.054-13.404 1.994-15.3-.56-.724-.974-.288-2.167 1.309-3.159 1.809-1.12 4.14-1.748 6.479-1.426l.19-3.883c-2.859-.393-5.779.28-8.598 2.03-4.18 2.592-5.071 6.416-3.067 9.116 4.533 6.104 13.287-2.205 15.382.616.704.946.35 2.41-1.752 3.714-2.446 1.52-5.148 1.702-7.283 1.288l-.072 3.984c2.815.495 6.041.02 9.471-2.109 4.766-2.954 5.445-6.646 3.241-9.611zm22.459-6.758L50.968 51.36l-4.736 2.938 5.206 20.466 4.284-2.657-.922-3.442 7.61-4.721 3.157 2.055zm12.8-7.941l-2.259-3.042-7.503 4.655L63.1 43.831l-3.805 2.362L71.34 62.418zm15.111-9.378l-2.258-3.04-8.78 5.448-2.746-3.698 8.593-5.331-2.257-3.04-8.592 5.332-2.528-3.406 8.778-5.448-2.256-3.04-12.558 7.794 12.044 16.223z"/></g></g></svg>