<?xml version="1.0" encoding="utf-8"?>
<!-- Generator: Adobe Illustrator 18.1.0, SVG Export Plug-In . SVG Version: 6.00 Build 0)  -->
<svg version="1.1" id="Layer_1" xmlns="http://www.w3.org/2000/svg" xmlns:xlink="http://www.w3.org/1999/xlink" x="0px" y="0px"
	 viewBox="0 0 800 400" enable-background="new 0 0 800 400" xml:space="preserve">
<g display="none">
	<path display="inline" fill="#D12026" d="M47.9,246.6v55.7H11.5V140.6h57c40.7,0,61.1,17.2,61.1,51.5c0,16.2-5.8,29.4-17.5,39.4
		c-11.7,10-27.3,15-46.8,15H47.9z M47.9,168.6V219h14.3c19.4,0,29.1-8.5,29.1-25.5c0-16.6-9.7-24.9-29.1-24.9H47.9z"/>
	<path display="inline" fill="#D12026" d="M281,302.2h-39.7l-11.5-35.9h-57.5L161,302.2h-39.4l58.8-161.6h43.2L281,302.2z
		 M221.5,238.3L204.2,184c-1.3-4.1-2.2-8.9-2.7-14.5h-0.9c-0.4,4.7-1.3,9.4-2.8,14.1l-17.6,54.8H221.5z"/>
	<path display="inline" fill="#D12026" d="M441,302.2h-36.5v-65.8h-66.9v65.8h-36.4V140.6h36.4v64.5h66.9v-64.5H441V302.2z"/>
	<path display="inline" fill="#D12026" d="M546.3,305.1c-23.1,0-42-7.5-56.6-22.6c-14.6-15.1-21.9-34.7-21.9-58.9
		c0-25.5,7.4-46.2,22.2-62c14.8-15.8,34.4-23.7,58.8-23.7c23.1,0,41.7,7.6,56,22.7c14.2,15.1,21.4,35,21.4,59.7
		c0,25.4-7.4,45.9-22.1,61.4C589.3,297.3,570,305.1,546.3,305.1z M547.9,169.3c-12.8,0-22.9,4.8-30.4,14.4
		c-7.5,9.6-11.3,22.3-11.3,38c0,16,3.8,28.7,11.3,38c7.5,9.3,17.4,14,29.5,14c12.5,0,22.5-4.5,29.9-13.6c7.4-9.1,11-21.6,11-37.7
		c0-16.8-3.6-29.8-10.7-39.1C570,173.9,560.3,169.3,547.9,169.3z"/>
	<path display="inline" fill="#D12026" d="M787.3,302.2h-46L694.3,232c-0.9-1.4-2.3-4.3-4.3-8.9h-0.6v79.1H653V140.6h36.4V217h0.6
		c0.9-2.1,2.4-5.1,4.5-9l44.6-67.4h43.4l-56.3,77.1L787.3,302.2z"/>
</g>
<g display="none">
	<path display="inline" fill="#D12026" d="M11.9,112.6V36.9h21.5c6.5,0,11.7,1.6,15.6,4.8c3.8,3.2,5.8,7.4,5.8,12.5
		c0,4.3-1.2,8-3.5,11.2c-2.3,3.2-5.5,5.4-9.6,6.8v0.2c5.1,0.6,9.2,2.5,12.2,5.8c3.1,3.3,4.6,7.5,4.6,12.7c0,6.5-2.3,11.7-7,15.7
		s-10.5,6-17.6,6H11.9z M20.7,44.9v24.4h9.1c4.9,0,8.7-1.2,11.5-3.5c2.8-2.3,4.2-5.6,4.2-9.9c0-7.4-4.8-11-14.5-11H20.7z M20.7,77.3
		v27.2h12c5.2,0,9.2-1.2,12.1-3.7c2.9-2.5,4.3-5.8,4.3-10.1c0-8.9-6.1-13.4-18.3-13.4H20.7z"/>
	<path display="inline" fill="#D12026" d="M134.8,112.6H126V57.9c0-4.9,0.2-8.4,0.5-10.4h-0.3c-0.7,1.7-1.5,3.3-2.4,4.8l-39,60.3
		h-11V36.9h8.9v53.3c0,5.7-0.1,9.4-0.4,11.1h0.2c0.8-1.5,1.8-3.2,3-5.1l38-59.4h11.4V112.6z"/>
	<path display="inline" fill="#D12026" d="M216.2,132.9H208v-20.3h-54.2v20.3h-8.2v-28.3h5.9c5.1-9.3,9.4-20.1,12.9-32.4
		c3.5-12.4,5.5-24.1,6-35.2H206v67.7h10.2V132.9z M197.2,104.6V44.9H178c-0.6,8.7-2.5,18.9-5.8,30.5c-3.3,11.6-7,21.4-11,29.1H197.2
		z"/>
	<path display="inline" fill="#D12026" d="M288.3,112.6h-9.8l-8-21.2h-32.1l-7.5,21.2H221l29-75.7h9.2L288.3,112.6z M267.6,83.4
		l-11.9-32.2c-0.4-1.1-0.8-2.7-1.2-5.1h-0.2c-0.4,2.1-0.8,3.8-1.2,5.1l-11.8,32.2H267.6z"/>
	<path display="inline" fill="#D12026" d="M299.5,112.6V36.9H321c6.5,0,11.7,1.6,15.6,4.8c3.8,3.2,5.8,7.4,5.8,12.5
		c0,4.3-1.2,8-3.5,11.2c-2.3,3.2-5.5,5.4-9.6,6.8v0.2c5.1,0.6,9.2,2.5,12.2,5.8c3.1,3.3,4.6,7.5,4.6,12.7c0,6.5-2.3,11.7-7,15.7
		s-10.5,6-17.6,6H299.5z M308.3,44.9v24.4h9.1c4.9,0,8.7-1.2,11.5-3.5c2.8-2.3,4.2-5.6,4.2-9.9c0-7.4-4.8-11-14.5-11H308.3z
		 M308.3,77.3v27.2h12c5.2,0,9.2-1.2,12.1-3.7c2.9-2.5,4.3-5.8,4.3-10.1c0-8.9-6.1-13.4-18.3-13.4H308.3z"/>
	<path display="inline" fill="#D12026" d="M418.3,112.6h-8.9V78.1h-39.2v34.5h-8.9V36.9h8.9v33.2h39.2V36.9h8.9V112.6z"/>
	<path display="inline" fill="#D12026" d="M499.2,112.6h-8.9V57.9c0-4.9,0.2-8.4,0.5-10.4h-0.3c-0.7,1.7-1.5,3.3-2.4,4.8l-39,60.3
		h-11V36.9h8.9v53.3c0,5.7-0.1,9.4-0.4,11.1h0.2c0.8-1.5,1.8-3.2,3-5.1l38-59.4h11.4V112.6z"/>
	<path display="inline" fill="#D12026" d="M586.2,132.9H578v-20.3h-58.8V36.9h8.9v67.7h39.2V36.9h8.9v67.7h10.1V132.9z"/>
	<path display="inline" fill="#D12026" d="M644.1,44.9h-21.9v67.7h-8.9V44.9h-21.8v-8h52.5V44.9z"/>
	<path display="inline" fill="#D12026" d="M656,112.6V36.9h21.5c6.5,0,11.7,1.6,15.6,4.8c3.8,3.2,5.8,7.4,5.8,12.5
		c0,4.3-1.2,8-3.5,11.2c-2.3,3.2-5.5,5.4-9.6,6.8v0.2c5.1,0.6,9.2,2.5,12.2,5.8c3.1,3.3,4.6,7.5,4.6,12.7c0,6.5-2.3,11.7-7,15.7
		s-10.5,6-17.6,6H656z M664.8,44.9v24.4h9.1c4.9,0,8.7-1.2,11.5-3.5c2.8-2.3,4.2-5.6,4.2-9.9c0-7.4-4.8-11-14.5-11H664.8z
		 M664.8,77.3v27.2h12c5.2,0,9.2-1.2,12.1-3.7s4.3-5.8,4.3-10.1c0-8.9-6.1-13.4-18.3-13.4H664.8z"/>
	<path display="inline" fill="#D12026" d="M748.4,113.9c-10.7,0-19.3-3.5-25.8-10.6c-6.5-7.1-9.7-16.3-9.7-27.6
		c0-12.2,3.3-21.9,9.9-29.1c6.6-7.2,15.5-10.9,26.9-10.9c10.5,0,18.9,3.5,25.3,10.6c6.4,7,9.6,16.2,9.6,27.6
		c0,12.4-3.3,22.1-9.8,29.3C768.2,110.3,759.4,113.9,748.4,113.9z M749.1,43.7c-8,0-14.4,2.9-19.4,8.6c-5,5.7-7.4,13.3-7.4,22.6
		c0,9.3,2.4,16.8,7.3,22.5c4.8,5.7,11.1,8.5,18.9,8.5c8.3,0,14.8-2.7,19.6-8.1c4.8-5.4,7.2-13,7.2-22.7c0-10-2.3-17.7-7-23.2
		C763.6,46.4,757.2,43.7,749.1,43.7z"/>
</g>
<g display="none">
	<path display="inline" fill="#D12026" d="M35.1,359.7h-3.6v-27.1H15.6v27.1h-3.6v-30.4h23V359.7z"/>
	<path display="inline" fill="#D12026" d="M46.1,356.6L46.1,356.6L46,369.7h-3.5V338H46v3.8h0.1c1.7-2.9,4.2-4.3,7.5-4.3
		c2.8,0,5,1,6.5,2.9c1.6,1.9,2.4,4.5,2.4,7.8c0,3.6-0.9,6.5-2.6,8.7c-1.8,2.2-4.2,3.3-7.2,3.3C49.8,360.2,47.6,359,46.1,356.6z
		 M46,347.8v3c0,1.8,0.6,3.3,1.7,4.6c1.2,1.2,2.6,1.9,4.4,1.9c2.1,0,3.8-0.8,4.9-2.4c1.2-1.6,1.8-3.8,1.8-6.7c0-2.4-0.6-4.3-1.7-5.7
		s-2.6-2.1-4.5-2.1c-2,0-3.6,0.7-4.9,2.1C46.6,343.9,46,345.7,46,347.8z"/>
	<path display="inline" fill="#D12026" d="M82.8,359.7h-3.5v-9h-2.9c-1.4,0-2.7,1.1-3.8,3.4l-2.8,5.6h-4l3.6-6.7
		c0.8-1.6,1.9-2.6,3.1-3.1c-1.7-0.2-3-0.8-3.9-1.9c-0.9-1-1.3-2.3-1.3-3.8c0-1.9,0.7-3.4,2.1-4.6c1.4-1.1,3.3-1.7,5.9-1.7h7.6V359.7
		z M79.4,347.8V341h-4.1c-2.9,0-4.4,1.1-4.4,3.3c0,2.3,1.4,3.5,4.3,3.5H79.4z"/>
	<path display="inline" fill="#D12026" d="M111,367.6h-3v-7.9H89.8V338h3.5v18.7h11.1V338h3.5v18.7h3.2V367.6z"/>
	<path display="inline" fill="#D12026" d="M125.5,349.8h-6.1v9.8h-3.5V338h3.5v8.9h6.2c0.4-3,1.5-5.3,3.3-6.9c1.8-1.7,4.1-2.5,7-2.5
		c3.1,0,5.5,1,7.2,2.9s2.6,4.7,2.6,8.3c0,3.5-0.9,6.3-2.7,8.4c-1.8,2.1-4.3,3.1-7.5,3.1c-3,0-5.4-0.9-7-2.7
		C126.5,355.7,125.6,353.1,125.5,349.8z M135.5,340.4c-4.3,0-6.5,2.8-6.5,8.5c0,5.6,2.2,8.4,6.6,8.4c4.3,0,6.4-2.8,6.4-8.4
		C142,343.2,139.8,340.4,135.5,340.4z"/>
	<path display="inline" fill="#D12026" d="M165.9,358.7c-1.6,1-3.6,1.5-5.8,1.5c-3.2,0-5.8-1-7.7-3c-1.9-2-2.8-4.7-2.8-8.1
		c0-3.6,1-6.5,2.9-8.6s4.6-3.1,8-3.1c1.9,0,3.6,0.4,5.1,1.1v3.4c-1.4-1-3.1-1.6-5.2-1.6c-2.1,0-3.8,0.6-5,1.9s-2,2.9-2.2,5h9.2v3
		h-9.3c0.1,2.1,0.8,3.8,2.1,5.1c1.3,1.3,2.9,1.9,5,1.9c2.1,0,3.9-0.6,5.6-1.9V358.7z"/>
	<path display="inline" fill="#D12026" d="M194.6,359.7h-3.4v-17.9c-0.3,0.9-0.8,2.2-1.4,4l-5.4,13.9h-3.1l-5.6-13.9
		c-0.3-0.7-0.8-2.1-1.4-4v17.9h-3V338h4.4l5.7,14.1c0.4,1,0.9,2.5,1.6,4.3l1.5-4.2l5.5-14.2h4.6V359.7z"/>
	<path display="inline" fill="#D12026" d="M210.7,360.2c-3.2,0-5.8-1-7.7-3c-1.9-2-2.9-4.7-2.9-8.1c0-3.6,1-6.5,3-8.5
		c2-2,4.7-3.1,8.1-3.1c3.2,0,5.8,1,7.6,3c1.8,2,2.7,4.8,2.7,8.3c0,3.5-1,6.2-2.9,8.3C216.6,359.2,213.9,360.2,210.7,360.2z
		 M210.9,340.4c-2.2,0-4,0.8-5.3,2.3c-1.3,1.5-1.9,3.6-1.9,6.3c0,2.6,0.7,4.6,2,6.1c1.3,1.5,3.1,2.2,5.3,2.2c2.2,0,4-0.7,5.2-2.2
		s1.8-3.5,1.8-6.2c0-2.7-0.6-4.8-1.8-6.3C214.9,341.1,213.2,340.4,210.9,340.4z"/>
	<path display="inline" fill="#D12026" d="M257.8,367.6h-2.9v-7.9h-16.1v7.9h-3v-10.8h1.9c3.7-5.3,5.6-11.6,5.6-18.7h11.3v18.7h3.2
		V367.6z M251.1,356.7v-15.8h-4.8c-0.4,5.8-2,11.1-4.9,15.8H251.1z"/>
	<path display="inline" fill="#D12026" d="M278.4,359.7H275v-18.7h-5c-0.6,7-1.6,11.9-3,14.8s-3.3,4.3-5.7,4.3
		c-0.7,0-1.3-0.1-1.9-0.3v-3c0.5,0.3,1,0.4,1.6,0.4c3.1,0,5.1-6.4,6-19.1h11.4V359.7z"/>
	<path display="inline" fill="#D12026" d="M300.3,359.7h-3.5v-9h-2.9c-1.4,0-2.7,1.1-3.8,3.4l-2.8,5.6h-4l3.6-6.7
		c0.8-1.6,1.9-2.6,3.1-3.1c-1.7-0.2-3-0.8-3.9-1.9c-0.9-1-1.3-2.3-1.3-3.8c0-1.9,0.7-3.4,2.1-4.6c1.4-1.1,3.3-1.7,5.9-1.7h7.6V359.7
		z M296.8,347.8V341h-4.1c-2.9,0-4.4,1.1-4.4,3.3c0,2.3,1.4,3.5,4.3,3.5H296.8z"/>
	<path display="inline" fill="#D12026" d="M322.7,356.6L322.7,356.6l-0.1,13.1h-3.5V338h3.5v3.8h0.1c1.7-2.9,4.2-4.3,7.5-4.3
		c2.8,0,5,1,6.5,2.9c1.6,1.9,2.4,4.5,2.4,7.8c0,3.6-0.9,6.5-2.6,8.7c-1.8,2.2-4.2,3.3-7.2,3.3C326.4,360.2,324.2,359,322.7,356.6z
		 M322.6,347.8v3c0,1.8,0.6,3.3,1.7,4.6c1.2,1.2,2.6,1.9,4.4,1.9c2.1,0,3.8-0.8,4.9-2.4c1.2-1.6,1.8-3.8,1.8-6.7
		c0-2.4-0.6-4.3-1.7-5.7s-2.6-2.1-4.5-2.1c-2,0-3.6,0.7-4.9,2.1C323.2,343.9,322.6,345.7,322.6,347.8z"/>
	<path display="inline" fill="#D12026" d="M353.7,360.2c-3.2,0-5.8-1-7.7-3c-1.9-2-2.9-4.7-2.9-8.1c0-3.6,1-6.5,3-8.5
		c2-2,4.7-3.1,8.1-3.1c3.2,0,5.8,1,7.6,3c1.8,2,2.7,4.8,2.7,8.3c0,3.5-1,6.2-2.9,8.3C359.6,359.2,357,360.2,353.7,360.2z M354,340.4
		c-2.2,0-4,0.8-5.3,2.3c-1.3,1.5-1.9,3.6-1.9,6.3c0,2.6,0.7,4.6,2,6.1c1.3,1.5,3.1,2.2,5.3,2.2c2.2,0,4-0.7,5.2-2.2s1.8-3.5,1.8-6.2
		c0-2.7-0.6-4.8-1.8-6.3C357.9,341.1,356.2,340.4,354,340.4z"/>
	<path display="inline" fill="#D12026" d="M368.2,359.1v-3.4c1.9,1.1,4.1,1.6,6.6,1.6c3.8,0,5.7-1.2,5.7-3.6c0-2.4-2.1-3.6-6.3-3.6
		h-2.1v-2.9h2c3.7,0,5.5-1.1,5.5-3.4c0-1-0.4-1.8-1.3-2.3c-0.8-0.6-2-0.9-3.5-0.9c-2.1,0-4.2,0.5-6.3,1.6v-3.2
		c2.4-0.9,4.6-1.3,6.6-1.3c5.3,0,7.9,1.9,7.9,5.8c0,1.3-0.4,2.3-1.2,3.3c-0.8,0.9-1.9,1.5-3.3,1.8v0.1c1.6,0.1,2.9,0.7,3.9,1.6
		s1.5,2.2,1.5,3.6c0,2-0.8,3.6-2.4,4.7c-1.6,1.2-3.8,1.8-6.6,1.8C372.1,360.2,369.8,359.8,368.2,359.1z"/>
	<path display="inline" fill="#D12026" d="M389.4,359.7V338h9.4c2.1,0,3.8,0.5,5.1,1.4c1.2,0.9,1.9,2.2,1.9,3.9
		c0,2.8-1.4,4.5-4.2,5.1c3.3,0.4,5,2.1,5,5c0,1.8-0.7,3.2-2,4.4c-1.4,1.2-3.1,1.8-5.1,1.8H389.4z M392.9,341v6.1h5.2
		c2.8,0,4.2-1.1,4.2-3.3c0-1.9-1.3-2.8-3.8-2.8H392.9z M392.9,350v6.7h6c2.8,0,4.2-1.1,4.2-3.4c0-2.2-1.6-3.3-4.7-3.3H392.9z"/>
	<path display="inline" fill="#D12026" d="M430.5,359.7h-3.1v-17.3c-0.3,0.6-0.8,1.5-1.4,2.6l-10,14.7h-3.6V338h3.2v17.1
		c0.2-0.4,0.5-1.1,1.1-2.1l10.3-15h3.6V359.7z"/>
	<path display="inline" fill="#D12026" d="M451.2,341h-6.5v18.7h-3.5V341h-6.5v-3h16.5V341z"/>
	<path display="inline" fill="#D12026" d="M473.3,359.7h-4.9l-9.6-10.4h-0.1v10.4h-3.5V338h3.5v9.9h0.1l9.1-9.9h4.6l-10.1,10.5
		L473.3,359.7z"/>
	<path display="inline" fill="#D12026" d="M494.2,338l-10,25.2c-1.8,4.5-4.3,6.7-7.5,6.7c-0.9,0-1.7-0.1-2.3-0.3v-3.1
		c0.7,0.3,1.4,0.4,2.1,0.4c1.8,0,3.1-1,3.9-3.1l1.7-4.1l-8.5-21.6h3.9l5.9,16.7c0.1,0.2,0.2,0.8,0.4,1.7h0.1
		c0.1-0.3,0.2-0.9,0.4-1.6l6.2-16.7H494.2z"/>
	<path display="inline" fill="#D12026" d="M523.4,341h-6.5v18.7h-3.5V341h-6.5v-3h16.5V341z"/>
	<path display="inline" fill="#D12026" d="M543.1,359.7h-3.5v-3.4h-0.1c-1.5,2.6-3.7,3.9-6.7,3.9c-2.2,0-3.9-0.6-5.1-1.7
		s-1.8-2.7-1.8-4.6c0-4.1,2.4-6.4,7.2-7.1l6.5-0.9c0-3.7-1.5-5.5-4.5-5.5c-2.6,0-5,0.9-7.1,2.7v-3.6c2.1-1.4,4.6-2,7.4-2
		c5.1,0,7.6,2.7,7.6,8.1V359.7z M539.6,348.7l-5.2,0.7c-1.6,0.2-2.8,0.6-3.6,1.2s-1.2,1.6-1.2,3c0,1.1,0.4,1.9,1.1,2.6
		c0.8,0.7,1.8,1,3,1c1.7,0,3.1-0.6,4.3-1.8s1.7-2.7,1.7-4.6V348.7z"/>
	<path display="inline" fill="#D12026" d="M570.6,360.2c-3.2,0-5.8-1-7.7-3s-2.9-4.7-2.9-8.1c0-3.6,1-6.5,3-8.5s4.7-3.1,8.1-3.1
		c3.2,0,5.8,1,7.6,3c1.8,2,2.7,4.8,2.7,8.3c0,3.5-1,6.2-2.9,8.3C576.5,359.2,573.9,360.2,570.6,360.2z M570.8,340.4
		c-2.2,0-4,0.8-5.3,2.3c-1.3,1.5-1.9,3.6-1.9,6.3c0,2.6,0.7,4.6,2,6.1c1.3,1.5,3.1,2.2,5.3,2.2c2.2,0,4-0.7,5.2-2.2s1.8-3.5,1.8-6.2
		c0-2.7-0.6-4.8-1.8-6.3C574.8,341.1,573.1,340.4,570.8,340.4z"/>
	<path display="inline" fill="#D12026" d="M601.7,358.7c-1.7,1-3.6,1.5-5.9,1.5c-3.1,0-5.6-1-7.5-3s-2.8-4.6-2.8-7.8
		c0-3.6,1-6.4,3.1-8.6s4.8-3.3,8.2-3.3c1.9,0,3.6,0.4,5,1.1v3.6c-1.6-1.1-3.3-1.7-5.2-1.7c-2.2,0-4,0.8-5.5,2.4s-2.1,3.7-2.1,6.3
		c0,2.5,0.7,4.5,2,6c1.3,1.5,3.1,2.2,5.4,2.2c1.9,0,3.7-0.6,5.3-1.9V358.7z"/>
	<path display="inline" fill="#D12026" d="M606.9,359.7V338h9.4c2.1,0,3.8,0.5,5,1.4c1.2,0.9,1.9,2.2,1.9,3.9c0,2.8-1.4,4.5-4.2,5.1
		c3.3,0.4,5,2.1,5,5c0,1.8-0.7,3.2-2,4.4s-3.1,1.8-5.1,1.8H606.9z M610.4,341v6.1h5.2c2.8,0,4.2-1.1,4.2-3.3c0-1.9-1.3-2.8-3.8-2.8
		H610.4z M610.4,350v6.7h6c2.8,0,4.2-1.1,4.2-3.4c0-2.2-1.6-3.3-4.7-3.3H610.4z"/>
	<path display="inline" fill="#D12026" d="M631.7,332.5c-0.6,0-1.2-0.2-1.6-0.6c-0.4-0.4-0.7-1-0.7-1.6s0.2-1.2,0.7-1.6
		c0.4-0.4,1-0.6,1.6-0.6c0.6,0,1.2,0.2,1.6,0.6s0.7,1,0.7,1.6c0,0.6-0.2,1.2-0.7,1.6C632.9,332.3,632.3,332.5,631.7,332.5z
		 M633.4,359.7h-3.5V338h3.5V359.7z"/>
	<path display="inline" fill="#D12026" d="M654,341h-6.5v18.7h-3.5V341h-6.5v-3H654V341z"/>
	<path display="inline" fill="#D12026" d="M676.4,359.7h-3.1v-17.3c-0.3,0.6-0.8,1.5-1.4,2.6l-10,14.7h-3.6V338h3.2v17.1
		c0.2-0.4,0.5-1.1,1.1-2.1l10.3-15h3.6V359.7z"/>
	<path display="inline" fill="#D12026" d="M714.2,367.6h-2.9v-7.9h-16.1v7.9h-3v-10.8h1.9c3.7-5.3,5.6-11.6,5.6-18.7H711v18.7h3.2
		V367.6z M707.5,356.7v-15.8h-4.8c-0.4,5.8-2,11.1-4.9,15.8H707.5z"/>
	<path display="inline" fill="#D12026" d="M720.8,332.5c-0.6,0-1.2-0.2-1.6-0.6c-0.4-0.4-0.7-1-0.7-1.6s0.2-1.2,0.7-1.6
		c0.4-0.4,1-0.6,1.6-0.6c0.6,0,1.2,0.2,1.6,0.6s0.7,1,0.7,1.6c0,0.6-0.2,1.2-0.7,1.6C722,332.3,721.4,332.5,720.8,332.5z
		 M722.5,359.7H719V338h3.5V359.7z"/>
	<path display="inline" fill="#D12026" d="M743.1,341h-6.5v18.7h-3.5V341h-6.5v-3h16.5V341z"/>
	<path display="inline" fill="#D12026" d="M764.7,349.7h-15.3c0.1,2.4,0.7,4.3,1.9,5.6c1.2,1.3,3,2,5.1,2c2.4,0,4.7-0.8,6.7-2.4v3.3
		c-1.9,1.4-4.4,2.1-7.6,2.1c-3.1,0-5.5-1-7.2-3c-1.8-2-2.6-4.7-2.6-8.3c0-3.4,1-6.1,2.9-8.2c1.9-2.1,4.3-3.2,7.1-3.2
		c2.8,0,5,0.9,6.6,2.8s2.3,4.4,2.3,7.6V349.7z M761.2,346.8c0-2-0.5-3.6-1.5-4.7c-1-1.1-2.3-1.7-4-1.7c-1.6,0-3,0.6-4.2,1.8
		s-1.8,2.7-2.1,4.6H761.2z"/>
	<path display="inline" fill="#D12026" d="M788.1,359.7H785v-17.3c-0.3,0.6-0.8,1.5-1.4,2.6l-10,14.7H770V338h3.2v17.1
		c0.2-0.4,0.5-1.1,1.1-2.1l10.3-15h3.6V359.7z M786.9,327.5c-0.2,2-1,3.6-2.4,4.7c-1.4,1.2-3.1,1.7-5.2,1.7c-2.1,0-3.9-0.6-5.2-1.7
		c-1.3-1.2-2.1-2.7-2.2-4.7h3.4c0.2,2.7,1.6,4,4.1,4c1.1,0,2.1-0.3,2.8-1c0.7-0.7,1.2-1.7,1.4-2.9H786.9z"/>
</g>
<g>
	<path fill="#D12026" d="M48.9,244.8v55.7H12.5V138.8h57.1c40.7,0,61.1,17.2,61.1,51.5c0,16.2-5.8,29.4-17.5,39.4
		c-11.7,10-27.3,15.1-46.8,15.1H48.9z M48.9,166.7v50.4h14.3c19.4,0,29.1-8.5,29.1-25.5c0-16.6-9.7-24.9-29.1-24.9H48.9z"/>
	<path fill="#D12026" d="M282.2,300.5h-39.7l-11.5-36h-57.5l-11.4,36h-39.5l58.9-161.7h43.2L282.2,300.5z M222.7,236.5l-17.4-54.3
		c-1.3-4.1-2.2-8.9-2.7-14.5h-0.9c-0.4,4.7-1.3,9.4-2.8,14.1l-17.6,54.8H222.7z"/>
	<path fill="#D12026" d="M442.3,300.5h-36.5v-65.8h-67v65.8h-36.4V138.8h36.4v64.5h67v-64.5h36.5V300.5z"/>
	<path fill="#D12026" d="M547.6,303.3c-23.2,0-42-7.5-56.6-22.6c-14.6-15.1-21.9-34.7-21.9-58.9c0-25.6,7.4-46.2,22.2-62
		c14.8-15.8,34.4-23.7,58.9-23.7c23.1,0,41.7,7.6,56,22.7c14.2,15.1,21.4,35,21.4,59.8c0,25.4-7.4,45.9-22.2,61.5
		C590.6,295.5,571.4,303.3,547.6,303.3z M549.2,167.4c-12.8,0-22.9,4.8-30.4,14.4c-7.5,9.6-11.3,22.3-11.3,38.1
		c0,16,3.8,28.7,11.3,38c7.5,9.3,17.4,14,29.5,14c12.6,0,22.5-4.5,29.9-13.6c7.4-9.1,11-21.6,11-37.7c0-16.8-3.6-29.8-10.7-39.1
		C571.4,172.1,561.6,167.4,549.2,167.4z"/>
	<path fill="#D12026" d="M788.8,300.5h-46l-47.1-70.2c-0.9-1.4-2.3-4.3-4.3-8.9h-0.6v79.2h-36.4V138.8h36.4v76.4h0.6
		c0.9-2.1,2.4-5.1,4.5-9l44.7-67.4H784l-56.4,77.1L788.8,300.5z"/>
</g>
<g>
	<path fill="#D12026" d="M73.3,111.1h-8.8V56.9c0-4.9,0.2-8.3,0.5-10.3h-0.3c-0.7,1.7-1.5,3.3-2.4,4.7l-38.6,59.8H12.8V36h8.8v52.9
		c0,5.7-0.1,9.3-0.4,11h0.2c0.8-1.5,1.7-3.2,2.9-5L62,36h11.3V111.1z"/>
	<path fill="#D12026" d="M88.3,108v-9.5c5.9,4.3,12.5,6.4,19.9,6.4c5.4,0,9.7-1.3,12.9-3.9s4.8-6.1,4.8-10.6
		c0-9.6-6.5-14.4-19.5-14.4h-7.8v-7.3h7.2c5.5,0,9.8-1.2,12.9-3.6c3.1-2.4,4.6-5.8,4.6-10.2c0-3.8-1.3-6.8-3.8-9.1
		c-2.5-2.3-6-3.4-10.4-3.4c-6.3,0-12.4,2-18.3,5.9v-8.9c5.5-3.1,11.9-4.6,19.1-4.6c7.1,0,12.7,1.7,16.8,5.1
		c4.1,3.4,6.1,7.8,6.1,13.3c0,9.7-4.7,15.9-14.2,18.4v0.2c5.2,0.6,9.3,2.5,12.3,5.8c3,3.3,4.6,7.3,4.6,12.2c0,6.9-2.4,12.3-7.3,16.4
		c-4.9,4.1-11.6,6.1-20,6.1C99.4,112.4,92.9,110.9,88.3,108z"/>
	<path fill="#D12026" d="M211.9,131.3h-8.1v-20.2h-53.8v20.2h-8.1v-28.1h5.8c5-9.2,9.3-19.9,12.8-32.2c3.5-12.3,5.5-23.9,5.9-34.9
		h35.3v67.1h10.1V131.3z M193,103.1V44H174c-0.6,8.6-2.5,18.7-5.8,30.3c-3.3,11.6-6.9,21.2-10.9,28.9H193z"/>
	<path fill="#D12026" d="M283.4,111.1h-9.7l-8-21h-31.8l-7.5,21h-9.8L245.4,36h9.1L283.4,111.1z M262.9,82.2l-11.8-32
		c-0.4-1-0.8-2.7-1.2-5h-0.2c-0.3,2.1-0.8,3.8-1.2,5l-11.7,32H262.9z"/>
	<path fill="#D12026" d="M338.9,44h-21.7v67.1h-8.8V44h-21.6v-8h52.1V44z"/>
	<path fill="#D12026" d="M390.4,111.1h-39.8V36h38.1v8h-29.3v25h27.1v7.9h-27.1v26.3h31V111.1z"/>
	<path fill="#D12026" d="M457.2,111.1h-8.8V44h-20.8c-2.4,18.9-4.3,32.3-5.7,40.1c-1.4,7.8-2.8,13.6-4.2,17.3
		c-1.4,3.7-3.4,6.4-5.8,8.2c-2.4,1.8-5.4,2.7-8.8,2.7c-2.8,0-5.1-0.4-7.2-1.1v-8.3c1.8,1,3.8,1.5,5.9,1.5c2.2,0,4.2-1.3,6.1-3.9
		c1.9-2.6,3.8-9.3,5.8-20.2c2-10.9,4.2-25.6,6.6-44.4h37V111.1z"/>
	<path fill="#D12026" d="M477,111.1V36h8.8v31.8H500c7.5,0,13.3,1.8,17.4,5.4c4.2,3.6,6.2,8.8,6.2,15.4c0,6.9-2.2,12.4-6.5,16.4
		c-4.4,4-10.3,6-17.8,6H477z M485.8,75.8v27.3h12.4c5.2,0,9.2-1.2,12-3.7c2.8-2.4,4.2-5.9,4.2-10.3c0-8.9-5.4-13.4-16.3-13.4H485.8z
		"/>
	<path fill="#D12026" d="M589.8,108c-5.5,2.9-12.5,4.4-20.7,4.4c-10.7,0-19.2-3.4-25.6-10.3c-6.4-6.9-9.6-15.9-9.6-27.1
		c0-12,3.6-21.7,10.8-29.1c7.2-7.4,16.4-11.1,27.5-11.1c7.1,0,13,1,17.7,3.1v9.4c-5.4-3-11.3-4.5-17.8-4.5c-8.6,0-15.6,2.9-21,8.6
		c-5.4,5.8-8,13.5-8,23.1c0,9.1,2.5,16.4,7.5,21.9c5,5.4,11.6,8.1,19.7,8.1c7.5,0,14.1-1.7,19.6-5V108z"/>
	<path fill="#D12026" d="M649.5,44h-21.7v67.1H619V44h-21.6v-8h52.1V44z"/>
	<path fill="#D12026" d="M661.3,111.1V36h21.4c6.5,0,11.6,1.6,15.4,4.8c3.8,3.2,5.7,7.3,5.7,12.4c0,4.3-1.2,8-3.5,11.1
		c-2.3,3.1-5.5,5.4-9.5,6.7v0.2c5.1,0.6,9.1,2.5,12.1,5.7c3,3.2,4.6,7.4,4.6,12.6c0,6.4-2.3,11.6-6.9,15.6c-4.6,4-10.4,6-17.4,6
		H661.3z M670.1,44v24.2h9c4.8,0,8.6-1.2,11.4-3.5c2.8-2.3,4.1-5.6,4.1-9.8c0-7.3-4.8-10.9-14.4-10.9H670.1z M670.1,76.1v27H682
		c5.2,0,9.2-1.2,12-3.7c2.8-2.4,4.3-5.8,4.3-10.1c0-8.9-6-13.3-18.1-13.3H670.1z"/>
	<path fill="#D12026" d="M753,112.4c-10.6,0-19.2-3.5-25.6-10.5c-6.4-7-9.6-16.1-9.6-27.4c0-12.1,3.3-21.7,9.8-28.9
		c6.5-7.2,15.4-10.8,26.6-10.8c10.4,0,18.7,3.5,25,10.5c6.3,7,9.5,16.1,9.5,27.4c0,12.2-3.2,21.9-9.7,29.1
		C772.6,108.8,763.9,112.4,753,112.4z M753.6,42.7c-7.9,0-14.3,2.8-19.2,8.5c-4.9,5.7-7.4,13.2-7.4,22.4c0,9.2,2.4,16.7,7.2,22.3
		c4.8,5.6,11.1,8.5,18.8,8.5c8.2,0,14.7-2.7,19.5-8.1c4.7-5.4,7.1-12.9,7.1-22.6c0-9.9-2.3-17.6-6.9-23
		C768.1,45.4,761.7,42.7,753.6,42.7z"/>
</g>
<g>
	<path fill="#D12026" d="M15.7,343.2v10h-3.1v-26.5h7.3c2.8,0,5,0.7,6.6,2.1c1.6,1.4,2.3,3.3,2.3,5.8s-0.9,4.6-2.6,6.2
		c-1.7,1.6-4.1,2.4-7,2.4H15.7z M15.7,329.5v10.9h3.3c2.1,0,3.8-0.5,4.9-1.5c1.1-1,1.7-2.4,1.7-4.1c0-3.5-2.1-5.2-6.2-5.2H15.7z"/>
	<path fill="#D12026" d="M46.9,353.2h-3v-3h-0.1c-1.3,2.3-3.3,3.4-5.8,3.4c-1.9,0-3.4-0.5-4.4-1.5s-1.6-2.3-1.6-4
		c0-3.5,2.1-5.6,6.2-6.2l5.7-0.8c0-3.2-1.3-4.8-3.9-4.8c-2.3,0-4.3,0.8-6.2,2.3v-3.1c1.9-1.2,4-1.8,6.4-1.8c4.4,0,6.7,2.4,6.7,7.1
		V353.2z M43.9,343.6l-4.6,0.6c-1.4,0.2-2.5,0.5-3.2,1c-0.7,0.5-1.1,1.4-1.1,2.7c0,0.9,0.3,1.7,1,2.3c0.7,0.6,1.5,0.9,2.6,0.9
		c1.5,0,2.7-0.5,3.7-1.6c1-1.1,1.5-2.4,1.5-4V343.6z"/>
	<path fill="#D12026" d="M67.2,325v2.8c-0.5,0.4-1.3,0.6-2.4,0.8c-2.8,0.4-4.7,0.8-5.8,1.2c-1.1,0.4-2,1.2-2.7,2.5
		c-0.7,1.3-1.2,3.1-1.4,5.6H55c1.5-2.1,3.6-3.2,6.3-3.2c2.5,0,4.5,0.9,6,2.6s2.3,4,2.3,6.8c0,2.9-0.8,5.2-2.4,7
		c-1.6,1.8-3.7,2.6-6.4,2.6c-2.9,0-5.1-1-6.7-3.1c-1.6-2.1-2.4-5-2.4-8.8c0-3,0.3-5.5,0.8-7.6s1.4-3.6,2.4-4.7c1-1,2.1-1.8,3.3-2.2
		c1.2-0.4,3.3-0.9,6.3-1.4C65.8,325.6,66.7,325.3,67.2,325z M54.9,340.9v2.6c0,1,0.2,2,0.4,2.9c0.3,0.9,0.7,1.8,1.2,2.5
		s1.2,1.3,1.9,1.6s1.5,0.5,2.5,0.5c1.7,0,3-0.6,4.1-1.9c1-1.3,1.6-2.9,1.6-4.8c0-2.2-0.5-3.9-1.6-5.2s-2.5-1.9-4.3-1.9
		C58.1,337.3,56.2,338.5,54.9,340.9z"/>
	<path fill="#D12026" d="M82.4,353.6c-2.8,0-5-0.9-6.7-2.7c-1.7-1.8-2.5-4.1-2.5-7c0-3.2,0.9-5.7,2.6-7.4s4.1-2.7,7-2.7
		c2.8,0,5,0.9,6.6,2.6c1.6,1.7,2.4,4.1,2.4,7.2c0,3-0.9,5.4-2.6,7.2C87.6,352.7,85.3,353.6,82.4,353.6z M82.6,336.4
		c-1.9,0-3.5,0.7-4.6,2c-1.1,1.3-1.7,3.1-1.7,5.5c0,2.2,0.6,4,1.7,5.3c1.1,1.3,2.7,1.9,4.6,1.9c2,0,3.5-0.6,4.5-1.9
		c1.1-1.3,1.6-3.1,1.6-5.4c0-2.4-0.5-4.2-1.6-5.5S84.6,336.4,82.6,336.4z"/>
	<path fill="#D12026" d="M108.5,336.9h-5.7v16.3h-3v-16.3h-5.7v-2.6h14.4V336.9z"/>
	<path fill="#D12026" d="M125.7,353.2h-3v-3h-0.1c-1.3,2.3-3.3,3.4-5.8,3.4c-1.9,0-3.4-0.5-4.4-1.5s-1.6-2.3-1.6-4
		c0-3.5,2.1-5.6,6.2-6.2l5.7-0.8c0-3.2-1.3-4.8-3.9-4.8c-2.3,0-4.3,0.8-6.2,2.3v-3.1c1.9-1.2,4-1.8,6.4-1.8c4.4,0,6.7,2.4,6.7,7.1
		V353.2z M122.7,343.6l-4.6,0.6c-1.4,0.2-2.5,0.5-3.2,1c-0.7,0.5-1.1,1.4-1.1,2.7c0,0.9,0.3,1.7,1,2.3c0.7,0.6,1.5,0.9,2.6,0.9
		c1.5,0,2.7-0.5,3.7-1.6c1-1.1,1.5-2.4,1.5-4V343.6z"/>
	<path fill="#D12026" d="M146.6,344.5h-13.4c0,2.1,0.6,3.7,1.7,4.9c1.1,1.1,2.6,1.7,4.5,1.7c2.1,0,4.1-0.7,5.9-2.1v2.8
		c-1.7,1.2-3.9,1.8-6.6,1.8c-2.7,0-4.8-0.9-6.3-2.6s-2.3-4.1-2.3-7.2c0-2.9,0.8-5.3,2.5-7.2c1.7-1.9,3.7-2.8,6.2-2.8
		s4.4,0.8,5.7,2.4c1.4,1.6,2,3.8,2,6.7V344.5z M143.5,341.9c0-1.7-0.4-3.1-1.3-4.1c-0.8-1-2-1.5-3.5-1.5c-1.4,0-2.6,0.5-3.6,1.5
		c-1,1-1.6,2.4-1.8,4H143.5z"/>
	<path fill="#D12026" d="M171.6,353.2h-3v-15.6c-0.3,0.8-0.7,1.9-1.3,3.5l-4.7,12.1h-2.7l-4.9-12.1c-0.3-0.7-0.7-1.8-1.3-3.5v15.6
		h-2.6v-18.9h3.9l5,12.3c0.4,0.9,0.8,2.1,1.4,3.7l1.3-3.7l4.8-12.4h4V353.2z"/>
	<path fill="#D12026" d="M204.6,360.1H202v-6.9H188v6.9h-2.6v-9.5h1.7c3.2-4.7,4.9-10.1,4.9-16.3h9.8v16.3h2.8V360.1z M198.8,350.6
		v-13.8h-4.2c-0.3,5.1-1.8,9.7-4.3,13.8H198.8z"/>
	<path fill="#D12026" d="M222.6,353.2h-3v-16.3h-4.4c-0.5,6.1-1.4,10.4-2.6,12.9c-1.2,2.5-2.9,3.7-4.9,3.7c-0.6,0-1.2-0.1-1.6-0.3
		v-2.6c0.4,0.2,0.9,0.3,1.4,0.3c2.7,0,4.5-5.5,5.2-16.6h9.9V353.2z"/>
	<path fill="#D12026" d="M241.6,353.2h-3v-7.8h-2.5c-1.2,0-2.3,1-3.3,3l-2.5,4.9h-3.5l3.2-5.8c0.7-1.4,1.6-2.2,2.7-2.7
		c-1.5-0.2-2.6-0.7-3.4-1.6c-0.8-0.9-1.2-2-1.2-3.3c0-1.7,0.6-3,1.8-4c1.2-1,2.9-1.5,5.1-1.5h6.6V353.2z M238.6,342.8v-6H235
		c-2.5,0-3.8,1-3.8,2.9c0,2,1.2,3.1,3.7,3.1H238.6z"/>
	<path fill="#D12026" d="M261.2,350.5L261.2,350.5l-0.1,11.4h-3v-27.6h3v3.3h0.1c1.5-2.5,3.7-3.8,6.5-3.8c2.4,0,4.3,0.8,5.7,2.5
		c1.4,1.7,2,4,2,6.8c0,3.2-0.8,5.7-2.3,7.6c-1.5,1.9-3.6,2.9-6.3,2.9C264.4,353.6,262.5,352.6,261.2,350.5z M261.1,342.8v2.6
		c0,1.6,0.5,2.9,1.5,4c1,1.1,2.3,1.6,3.9,1.6c1.8,0,3.3-0.7,4.3-2.1c1-1.4,1.6-3.4,1.6-5.9c0-2.1-0.5-3.8-1.5-4.9s-2.3-1.8-4-1.8
		c-1.8,0-3.2,0.6-4.2,1.8C261.7,339.5,261.1,341,261.1,342.8z"/>
	<path fill="#D12026" d="M288.2,353.6c-2.8,0-5-0.9-6.7-2.7c-1.7-1.8-2.5-4.1-2.5-7c0-3.2,0.9-5.7,2.6-7.4s4.1-2.7,7-2.7
		c2.8,0,5,0.9,6.6,2.6c1.6,1.7,2.4,4.1,2.4,7.2c0,3-0.9,5.4-2.6,7.2C293.4,352.7,291.1,353.6,288.2,353.6z M288.5,336.4
		c-1.9,0-3.5,0.7-4.6,2c-1.1,1.3-1.7,3.1-1.7,5.5c0,2.2,0.6,4,1.7,5.3c1.1,1.3,2.7,1.9,4.6,1.9c2,0,3.5-0.6,4.5-1.9
		c1.1-1.3,1.6-3.1,1.6-5.4c0-2.4-0.5-4.2-1.6-5.5S290.4,336.4,288.5,336.4z"/>
	<path fill="#D12026" d="M300.9,352.7v-3c1.6,0.9,3.6,1.4,5.8,1.4c3.3,0,5-1.1,5-3.2c0-2.1-1.8-3.1-5.5-3.1h-1.9v-2.6h1.8
		c3.2,0,4.8-1,4.8-3c0-0.8-0.4-1.5-1.1-2s-1.7-0.8-3-0.8c-1.8,0-3.7,0.5-5.5,1.4V335c2.1-0.8,4-1.1,5.8-1.1c4.6,0,6.9,1.7,6.9,5.1
		c0,1.1-0.3,2-1,2.8c-0.7,0.8-1.6,1.3-2.9,1.6v0.1c1.4,0.1,2.5,0.6,3.4,1.4c0.8,0.8,1.3,1.9,1.3,3.2c0,1.7-0.7,3.1-2.1,4.1
		c-1.4,1-3.3,1.5-5.7,1.5C304.3,353.7,302.3,353.3,300.9,352.7z"/>
	<path fill="#D12026" d="M319.4,353.2v-18.9h8.2c1.9,0,3.3,0.4,4.4,1.2c1.1,0.8,1.6,2,1.6,3.4c0,2.5-1.2,3.9-3.6,4.5
		c2.9,0.4,4.3,1.8,4.3,4.4c0,1.5-0.6,2.8-1.8,3.9c-1.2,1-2.7,1.6-4.4,1.6H319.4z M322.4,336.9v5.3h4.5c2.4,0,3.7-0.9,3.7-2.8
		c0-1.6-1.1-2.5-3.3-2.5H322.4z M322.4,344.8v5.8h5.2c2.4,0,3.7-1,3.7-3c0-1.9-1.4-2.9-4.1-2.9H322.4z"/>
	<path fill="#D12026" d="M355.2,353.2h-2.7v-15.1c-0.3,0.5-0.7,1.3-1.2,2.2l-8.7,12.9h-3.1v-18.9h2.8v14.9c0.1-0.4,0.5-1,1-1.8
		l9-13.1h3.1V353.2z"/>
	<path fill="#D12026" d="M373.2,336.9h-5.7v16.3h-3v-16.3h-5.7v-2.6h14.4V336.9z"/>
	<path fill="#D12026" d="M392.7,353.2H390v-15.1c-0.3,0.5-0.7,1.3-1.2,2.2l-8.7,12.9h-3.1v-18.9h2.8v14.9c0.1-0.4,0.5-1,1-1.8
		l9-13.1h3.1V353.2z"/>
	<path fill="#D12026" d="M411.8,353.2h-3v-7.8h-2.5c-1.2,0-2.3,1-3.3,3l-2.5,4.9h-3.5l3.2-5.8c0.7-1.4,1.6-2.2,2.7-2.7
		c-1.5-0.2-2.6-0.7-3.4-1.6c-0.8-0.9-1.2-2-1.2-3.3c0-1.7,0.6-3,1.8-4s2.9-1.5,5.1-1.5h6.6V353.2z M408.8,342.8v-6h-3.6
		c-2.5,0-3.8,1-3.8,2.9c0,2,1.2,3.1,3.7,3.1H408.8z"/>
	<path fill="#D12026" d="M444.1,353.2h-2.7v-15.1c-0.3,0.5-0.7,1.3-1.2,2.2l-8.7,12.9h-3.1v-18.9h2.8v14.9c0.1-0.4,0.5-1,1-1.8
		l9-13.1h3.1V353.2z"/>
	<path fill="#D12026" d="M468.5,353.6c-2.8,0-5-0.9-6.7-2.7c-1.7-1.8-2.5-4.1-2.5-7c0-3.2,0.9-5.7,2.6-7.4c1.7-1.8,4.1-2.7,7-2.7
		c2.8,0,5,0.9,6.6,2.6c1.6,1.7,2.4,4.1,2.4,7.2c0,3-0.9,5.4-2.6,7.2C473.6,352.7,471.3,353.6,468.5,353.6z M468.7,336.4
		c-1.9,0-3.5,0.7-4.6,2c-1.1,1.3-1.7,3.1-1.7,5.5c0,2.2,0.6,4,1.7,5.3c1.1,1.3,2.7,1.9,4.6,1.9c2,0,3.5-0.6,4.5-1.9
		c1.1-1.3,1.6-3.1,1.6-5.4c0-2.4-0.5-4.2-1.6-5.5C472.2,337,470.7,336.4,468.7,336.4z"/>
	<path fill="#D12026" d="M497.4,325v2.8c-0.5,0.4-1.3,0.6-2.4,0.8c-2.8,0.4-4.7,0.8-5.8,1.2s-2,1.2-2.7,2.5
		c-0.7,1.3-1.2,3.1-1.4,5.6h0.1c1.5-2.1,3.6-3.2,6.3-3.2c2.5,0,4.5,0.9,6,2.6c1.5,1.7,2.3,4,2.3,6.8c0,2.9-0.8,5.2-2.4,7
		c-1.6,1.8-3.7,2.6-6.4,2.6c-2.9,0-5.1-1-6.7-3.1c-1.6-2.1-2.4-5-2.4-8.8c0-3,0.3-5.5,0.8-7.6s1.4-3.6,2.4-4.7c1-1,2.1-1.8,3.3-2.2
		c1.2-0.4,3.3-0.9,6.3-1.4C495.9,325.6,496.8,325.3,497.4,325z M485,340.9v2.6c0,1,0.2,2,0.4,2.9c0.3,0.9,0.7,1.8,1.2,2.5
		s1.2,1.3,1.9,1.6s1.5,0.5,2.5,0.5c1.7,0,3-0.6,4.1-1.9c1-1.3,1.6-2.9,1.6-4.8c0-2.2-0.5-3.9-1.6-5.2s-2.5-1.9-4.3-1.9
		C488.2,337.3,486.3,338.5,485,340.9z"/>
	<path fill="#D12026" d="M507.7,350.5L507.7,350.5l-0.1,11.4h-3v-27.6h3v3.3h0.1c1.5-2.5,3.7-3.8,6.5-3.8c2.4,0,4.3,0.8,5.7,2.5
		c1.4,1.7,2,4,2,6.8c0,3.2-0.8,5.7-2.3,7.6c-1.5,1.9-3.6,2.9-6.3,2.9C510.9,353.6,509.1,352.6,507.7,350.5z M507.7,342.8v2.6
		c0,1.6,0.5,2.9,1.5,4c1,1.1,2.3,1.6,3.9,1.6c1.8,0,3.3-0.7,4.3-2.1s1.6-3.4,1.6-5.9c0-2.1-0.5-3.8-1.5-4.9s-2.3-1.8-4-1.8
		c-1.8,0-3.2,0.6-4.2,1.8C508.2,339.5,507.7,341,507.7,342.8z"/>
	<path fill="#D12026" d="M540.4,353.2h-3v-3h-0.1c-1.3,2.3-3.3,3.4-5.8,3.4c-1.9,0-3.4-0.5-4.4-1.5c-1.1-1-1.6-2.3-1.6-4
		c0-3.5,2.1-5.6,6.2-6.2l5.7-0.8c0-3.2-1.3-4.8-3.9-4.8c-2.3,0-4.3,0.8-6.2,2.3v-3.1c1.9-1.2,4-1.8,6.4-1.8c4.4,0,6.7,2.4,6.7,7.1
		V353.2z M537.4,343.6l-4.6,0.6c-1.4,0.2-2.5,0.5-3.2,1c-0.7,0.5-1.1,1.4-1.1,2.7c0,0.9,0.3,1.7,1,2.3c0.7,0.6,1.5,0.9,2.6,0.9
		c1.5,0,2.7-0.5,3.7-1.6c1-1.1,1.5-2.4,1.5-4V343.6z"/>
	<path fill="#D12026" d="M544.5,352.7v-3c1.6,0.9,3.6,1.4,5.8,1.4c3.3,0,5-1.1,5-3.2c0-2.1-1.8-3.1-5.5-3.1H548v-2.6h1.8
		c3.2,0,4.8-1,4.8-3c0-0.8-0.4-1.5-1.1-2s-1.7-0.8-3-0.8c-1.8,0-3.7,0.5-5.5,1.4V335c2.1-0.8,4-1.1,5.8-1.1c4.6,0,6.9,1.7,6.9,5.1
		c0,1.1-0.3,2-1,2.8c-0.7,0.8-1.6,1.3-2.9,1.6v0.1c1.4,0.1,2.5,0.6,3.4,1.4c0.8,0.8,1.3,1.9,1.3,3.2c0,1.7-0.7,3.1-2.1,4.1
		c-1.4,1-3.3,1.5-5.7,1.5C547.9,353.7,545.9,353.3,544.5,352.7z"/>
	<path fill="#D12026" d="M570.9,353.6c-2.8,0-5-0.9-6.7-2.7c-1.7-1.8-2.5-4.1-2.5-7c0-3.2,0.9-5.7,2.6-7.4c1.7-1.8,4.1-2.7,7-2.7
		c2.8,0,5,0.9,6.6,2.6c1.6,1.7,2.4,4.1,2.4,7.2c0,3-0.9,5.4-2.6,7.2C576,352.7,573.7,353.6,570.9,353.6z M571.1,336.4
		c-1.9,0-3.5,0.7-4.6,2c-1.1,1.3-1.7,3.1-1.7,5.5c0,2.2,0.6,4,1.7,5.3c1.1,1.3,2.7,1.9,4.6,1.9c2,0,3.5-0.6,4.5-1.9
		c1.1-1.3,1.6-3.1,1.6-5.4c0-2.4-0.5-4.2-1.6-5.5C574.6,337,573,336.4,571.1,336.4z"/>
	<path fill="#D12026" d="M585.1,353.2v-18.9h8.2c1.9,0,3.3,0.4,4.4,1.2c1.1,0.8,1.6,2,1.6,3.4c0,2.5-1.2,3.9-3.6,4.5
		c2.9,0.4,4.3,1.8,4.3,4.4c0,1.5-0.6,2.8-1.8,3.9c-1.2,1-2.7,1.6-4.4,1.6H585.1z M588.2,336.9v5.3h4.5c2.4,0,3.7-0.9,3.7-2.8
		c0-1.6-1.1-2.5-3.3-2.5H588.2z M588.2,344.8v5.8h5.2c2.5,0,3.7-1,3.7-3c0-1.9-1.4-2.9-4.1-2.9H588.2z"/>
	<path fill="#D12026" d="M618.7,353.2h-3v-3h-0.1c-1.3,2.3-3.3,3.4-5.8,3.4c-1.9,0-3.4-0.5-4.4-1.5c-1.1-1-1.6-2.3-1.6-4
		c0-3.5,2.1-5.6,6.2-6.2l5.7-0.8c0-3.2-1.3-4.8-3.9-4.8c-2.3,0-4.3,0.8-6.2,2.3v-3.1c1.9-1.2,4-1.8,6.4-1.8c4.4,0,6.7,2.4,6.7,7.1
		V353.2z M615.7,343.6l-4.6,0.6c-1.4,0.2-2.5,0.5-3.2,1c-0.7,0.5-1.1,1.4-1.1,2.7c0,0.9,0.3,1.7,1,2.3c0.7,0.6,1.5,0.9,2.6,0.9
		c1.5,0,2.7-0.5,3.7-1.6c1-1.1,1.5-2.4,1.5-4V343.6z"/>
	<path fill="#D12026" d="M640.1,353.2h-3v-8.6h-9.6v8.6h-3v-18.9h3v7.8h9.6v-7.8h3V353.2z"/>
	<path fill="#D12026" d="M662.1,353.2h-2.7v-15.1c-0.3,0.5-0.7,1.3-1.2,2.2l-8.7,12.9h-3.1v-18.9h2.8v14.9c0.1-0.4,0.5-1,1-1.8
		l9-13.1h3.1V353.2z"/>
	<path fill="#D12026" d="M681.1,353.2h-3v-7.8h-2.5c-1.2,0-2.3,1-3.3,3l-2.5,4.9h-3.5l3.2-5.8c0.7-1.4,1.6-2.2,2.7-2.7
		c-1.5-0.2-2.6-0.7-3.4-1.6c-0.8-0.9-1.2-2-1.2-3.3c0-1.7,0.6-3,1.8-4c1.2-1,2.9-1.5,5.1-1.5h6.6V353.2z M678.1,342.8v-6h-3.6
		c-2.5,0-3.8,1-3.8,2.9c0,2,1.2,3.1,3.7,3.1H678.1z"/>
	<path fill="#D12026" d="M714.1,360.1h-2.6v-6.9h-14.1v6.9h-2.6v-9.5h1.7c3.2-4.7,4.9-10.1,4.9-16.3h9.8v16.3h2.8V360.1z
		 M708.2,350.6v-13.8H704c-0.3,5.1-1.8,9.7-4.3,13.8H708.2z"/>
	<path fill="#D12026" d="M733.5,344.5h-13.4c0,2.1,0.6,3.7,1.7,4.9c1.1,1.1,2.6,1.7,4.5,1.7c2.1,0,4.1-0.7,5.9-2.1v2.8
		c-1.7,1.2-3.9,1.8-6.6,1.8c-2.7,0-4.8-0.9-6.3-2.6s-2.3-4.1-2.3-7.2c0-2.9,0.8-5.3,2.5-7.2c1.7-1.9,3.7-2.8,6.2-2.8
		c2.5,0,4.4,0.8,5.7,2.4c1.4,1.6,2,3.8,2,6.7V344.5z M730.4,341.9c0-1.7-0.4-3.1-1.3-4.1c-0.8-1-2-1.5-3.5-1.5
		c-1.4,0-2.6,0.5-3.6,1.5s-1.6,2.4-1.8,4H730.4z"/>
	<path fill="#D12026" d="M749.9,336.9h-5.7v16.3h-3v-16.3h-5.7v-2.6h14.4V336.9z"/>
	<path fill="#D12026" d="M768.8,344.5h-13.4c0,2.1,0.6,3.7,1.7,4.9c1.1,1.1,2.6,1.7,4.5,1.7c2.1,0,4.1-0.7,5.9-2.1v2.8
		c-1.7,1.2-3.9,1.8-6.6,1.8c-2.7,0-4.8-0.9-6.3-2.6s-2.3-4.1-2.3-7.2c0-2.9,0.8-5.3,2.5-7.2c1.7-1.9,3.7-2.8,6.2-2.8
		c2.5,0,4.4,0.8,5.7,2.4c1.4,1.6,2,3.8,2,6.7V344.5z M765.6,341.9c0-1.7-0.4-3.1-1.3-4.1c-0.8-1-2-1.5-3.5-1.5
		c-1.4,0-2.6,0.5-3.6,1.5s-1.6,2.4-1.8,4H765.6z"/>
	<path fill="#D12026" d="M789.2,353.2h-2.7v-15.1c-0.3,0.5-0.7,1.3-1.2,2.2l-8.7,12.9h-3.1v-18.9h2.8v14.9c0.1-0.4,0.5-1,1-1.8
		l9-13.1h3.1V353.2z M788.1,325.1c-0.2,1.7-0.9,3.1-2.1,4.1c-1.2,1-2.7,1.5-4.6,1.5c-1.9,0-3.4-0.5-4.6-1.5c-1.2-1-1.8-2.4-1.9-4.1
		h3c0.2,2.3,1.4,3.5,3.5,3.5c1,0,1.8-0.3,2.4-0.9c0.6-0.6,1-1.5,1.2-2.6H788.1z"/>
</g>
</svg>
